<svg id="visual" viewBox="0 0 960 540" width="960" height="540" xmlns="http://www.w3.org/2000/svg" xmlns:xlink="http://www.w3.org/1999/xlink" version="1.1"><g transform="translate(471.49347932275737 277.0566756962968)"><path d="M140.3 -163.5C177.7 -135.8 201.1 -87.7 209.6 -37.3C218.1 13.1 211.7 65.8 185.8 104.1C159.9 142.4 114.6 166.4 68.5 179.3C22.3 192.3 -24.6 194.4 -68.6 181.4C-112.6 168.4 -153.7 140.5 -175.1 101.9C-196.5 63.2 -198.2 14 -194.7 -39.2C-191.1 -92.4 -182.3 -149.6 -149 -178.1C-115.7 -206.6 -57.9 -206.3 -3.2 -202.4C51.4 -198.6 102.8 -191.2 140.3 -163.5" fill="#F71C0B"></path></g></svg>